<svg xmlns="http://www.w3.org/2000/svg" width="980" height="466" viewBox="0 0 980 466" role="img" aria-labelledby="title description">
<title id="title">Preliminary Testenix benchmark throughput ratios</title>
<desc id="description">Horizontal bars compare Testenix throughput with pytest and pytest-xdist for three checked-in synthetic benchmark scenarios.</desc>
<style>.title{font:700 22px system-ui,sans-serif;fill:#0f172a}.subtitle,.tick,.legend{font:13px system-ui,sans-serif;fill:#475569}.label{font:600 14px system-ui,sans-serif;fill:#1e293b}.value{font:700 13px system-ui,sans-serif;fill:#0f172a}.grid{stroke:#cbd5e1;stroke-width:1}</style>
<rect width="980" height="100%" rx="16" fill="#ffffff"/>
<text class="title" x="32" y="36">Synthetic benchmark throughput ratio</text>
<text class="subtitle" x="32" y="60">Higher is better · 1× means equal throughput</text>
<line class="grid" x1="285.0" y1="82" x2="285.0" y2="424"/>
<text class="tick" x="285.0" y="78" text-anchor="middle">0×</text>
<line class="grid" x1="440.0" y1="82" x2="440.0" y2="424"/>
<text class="tick" x="440.0" y="78" text-anchor="middle">1×</text>
<line class="grid" x1="595.0" y1="82" x2="595.0" y2="424"/>
<text class="tick" x="595.0" y="78" text-anchor="middle">2×</text>
<line class="grid" x1="750.0" y1="82" x2="750.0" y2="424"/>
<text class="tick" x="750.0" y="78" text-anchor="middle">3×</text>
<line class="grid" x1="905.0" y1="82" x2="905.0" y2="424"/>
<text class="tick" x="905.0" y="78" text-anchor="middle">4×</text>
<text class="label" x="32" y="119">10k no-op</text>
<text class="legend" x="273" y="123" text-anchor="end">vs pytest</text>
<rect x="285" y="108" width="441.9" height="22" rx="5" fill="#2563eb"/>
<text class="value" x="734.9" y="124">2.85×</text>
<text class="legend" x="273" y="157" text-anchor="end">vs pytest-xdist</text>
<rect x="285" y="142" width="375.8" height="22" rx="5" fill="#7c3aed"/>
<text class="value" x="668.8" y="158">2.42×</text>
<text class="label" x="32" y="231">10k uneven</text>
<text class="legend" x="273" y="235" text-anchor="end">vs pytest</text>
<rect x="285" y="220" width="354.5" height="22" rx="5" fill="#2563eb"/>
<text class="value" x="647.5" y="236">2.29×</text>
<text class="legend" x="273" y="269" text-anchor="end">vs pytest-xdist</text>
<rect x="285" y="254" width="246.4" height="22" rx="5" fill="#7c3aed"/>
<text class="value" x="539.4" y="270">1.59×</text>
<text class="label" x="32" y="343">100k no-op</text>
<text class="legend" x="273" y="347" text-anchor="end">vs pytest</text>
<rect x="285" y="332" width="488.5" height="22" rx="5" fill="#2563eb"/>
<text class="value" x="781.5" y="348">3.15×</text>
<text class="legend" x="273" y="381" text-anchor="end">vs pytest-xdist</text>
<rect x="285" y="366" width="410.7" height="22" rx="5" fill="#7c3aed"/>
<text class="value" x="703.7" y="382">2.65×</text>
<text class="subtitle" x="32" y="450">Development baseline · Apple M4 Pro · CPython 3.11.14 · raw samples linked below</text>
</svg>
